<?xml version="1.0" standalone="no"?><!DOCTYPE svg PUBLIC "-//W3C//DTD SVG 1.1//EN" "http://www.w3.org/Graphics/SVG/1.1/DTD/svg11.dtd"><svg t="1661760556694" class="icon" viewBox="0 0 1024 1024" version="1.1" xmlns="http://www.w3.org/2000/svg" p-id="2121" xmlns:xlink="http://www.w3.org/1999/xlink" width="128" height="128"><path d="M727.04 344.917333a285.7472 285.7472 0 0 0-191.8976-107.8784c-157.474133-18.8928-300.9536 93.866667-319.863467 251.306667a287.6416 287.6416 0 0 0 251.392 319.863467 289.416533 289.416533 0 0 0 34.491734 2.065066c143.36 0 267.946667-107.52 285.371733-253.371733A285.7472 285.7472 0 0 0 727.04 344.917333z" fill="#996E28" p-id="2122"></path><path d="M500.92202 505.531046m-33.444261 278.816263a280.814933 280.814933 0 1 0 66.888522-557.632525 280.814933 280.814933 0 1 0-66.888522 557.632525Z" fill="#D5382E" p-id="2123"></path><path d="M501.521067 793.2416a292.352 292.352 0 0 1-34.850134-2.0992 287.6416 287.6416 0 1 1 319.863467-251.306667l-6.826667-0.8192 6.826667 0.8192a287.726933 287.726933 0 0 1-285.013333 253.405867z m-1.1264-561.698133a274.773333 274.773333 0 1 0 33.194666 1.9968 278.528 278.528 0 0 0-33.194666-1.9968z" fill="#E8D4AB" p-id="2124"></path><path d="M766.293333 597.640533c-6.1952 24.046933-58.743467-11.025067-42.24-39.850666s-21.777067-35.84-45.329066-46.933334 25.2416-32.529067 17.664-58.333866c-5.700267-19.438933-46.370133-30.839467-66.082134-35.293867a9.693867 9.693867 0 0 1-6.826666-13.397333c10.5472-22.954667 31.112533-24.4736 51.985066-34.4064 17.066667-8.123733 12.970667-30.72 9.966934-52.48a9.728 9.728 0 0 1 16.554666-8.157867c35.1232 35.7888 105.045333 130.56 64.3072 288.853333zM409.9584 260.130133a37.7344 37.7344 0 0 0-4.471467 17.271467 10.888533 10.888533 0 0 0 7.68 10.24 39.5776 39.5776 0 0 1 26.385067 26.948267 10.769067 10.769067 0 0 0 2.935467 4.608c7.150933 6.7072 27.904 30.72-3.908267 60.962133a10.734933 10.734933 0 0 0-1.706667 13.380267 10.786133 10.786133 0 0 1-9.0112 16.418133c-15.6672 0.324267-35.669333 5.597867-41.8816 28.8768a10.581333 10.581333 0 0 0-0.341333 2.2016 22.528 22.528 0 0 0 2.833067 11.946667 10.837333 10.837333 0 0 1-8.7552 16.384c-10.069333 0.3584-22.493867-3.140267-34.013867-17.339734-25.1392-30.976-40.3968-16.571733-56.7808-7.714133-12.3904 6.690133-35.1232 21.998933-50.5856 22.920533a10.752 10.752 0 0 1-11.144533-12.356266c4.727467-32.290133 31.453867-154.077867 169.130666-209.732267a10.8032 10.8032 0 0 1 13.636267 14.984533zM376.9344 757.589333c37.888 15.530667 63.146667-71.1168 64.136533-85.111466s-55.364267-20.770133-39.901866-48.503467c12.219733-21.9648 55.722667-6.024533 73.386666 1.570133a4.846933 4.846933 0 0 0 6.826667-3.7376c0.7168-5.546667 4.010667-14.404267 14.848-26.794666s25.207467-9.642667 35.84-4.352a4.881067 4.881067 0 0 0 6.382933-6.826667c-9.403733-15.906133-25.088-35.618133-41.130666-25.6-25.429333 15.7696-56.029867-9.4208-57.531734-13.653333s-10.666667-51.541333-74.24-25.719467c-66.56 27.0336-115.285333-2.184533-134.212266-17.066667a4.881067 4.881067 0 0 0-7.901867 4.2496c3.549867 44.151467 25.9584 199.236267 153.4976 251.5456z" fill="#E8D4AB" p-id="2125"></path><path d="M212.6848 759.466667c-42.3424-5.12-72.738133-21.384533-88.541867-48.1792-25.6-43.537067-8.1408-107.178667 49.066667-179.2a12.032 12.032 0 1 1 18.773333 14.967466c-49.851733 62.754133-67.037867 118.1696-47.1552 152.046934 19.234133 32.750933 73.540267 45.124267 148.992 33.962666 80.213333-11.946667 175.189333-48.213333 267.3152-102.2976S731.323733 511.470933 780.8 447.146667c46.523733-60.450133 62.173867-113.902933 42.939733-146.653867-16.4352-27.989333-58.3168-41.233067-117.9136-37.3248a12.032 12.032 0 0 1-1.570133-24.029867c70.178133-4.608 118.664533 12.3904 140.253867 49.169067 24.814933 42.257067 8.977067 103.8848-44.612267 173.5168-51.319467 66.679467-131.754667 134.0416-226.474667 189.661867S380.586667 744.567467 297.4208 756.8896c-31.829333 4.7104-60.194133 5.512533-84.736 2.577067z" fill="#D5382E" p-id="2126"></path><path d="M726.016 238.4384c58.4704 0 99.191467 17.066667 118.4768 49.902933 24.814933 42.257067 8.977067 103.8848-44.612267 173.5168-51.319467 66.679467-131.754667 134.0416-226.474666 189.661867S380.586667 744.567467 297.4208 756.8896a373.623467 373.623467 0 0 1-54.459733 4.283733 254.5152 254.5152 0 0 1-30.276267-1.706666c-42.3424-5.12-72.738133-21.384533-88.541867-48.1792-25.6-43.537067-8.1408-107.178667 49.066667-179.2a12.032 12.032 0 1 1 18.773333 14.967466c-49.851733 62.754133-67.037867 118.1696-47.1552 152.046934 14.592 24.849067 49.390933 37.973333 98.304 37.973333a348.023467 348.023467 0 0 0 50.670934-4.010667c80.213333-11.946667 175.189333-48.213333 267.3152-102.2976S731.323733 511.470933 780.8 447.146667c46.523733-60.450133 62.173867-113.902933 42.939733-146.653867-14.5408-24.763733-49.032533-38.007467-98.0992-38.007467q-9.557333 0-19.8144 0.6656h-0.802133a12.032 12.032 0 0 1-0.768-24.046933q11.264-0.733867 21.777067-0.733867m0-10.24c-7.2192 0-14.762667 0.256-22.442667 0.768a22.272 22.272 0 0 0 1.450667 44.509867h1.467733c6.570667-0.426667 13.021867-0.648533 19.1488-0.648533 45.090133 0 76.8 11.707733 89.275733 32.955733 7.970133 13.653333 8.721067 32.546133 2.184534 54.869333-6.997333 23.893333-22.357333 51.677867-44.373334 80.349867-48.6912 63.266133-125.6448 127.556267-216.746666 180.992S371.370667 711.253333 292.386133 722.944a338.773333 338.773333 0 0 1-49.186133 3.908267c-45.226667 0-77.0048-11.690667-89.480533-32.9216-8.379733-14.267733-8.925867-33.4336-1.706667-56.968534 7.697067-24.832 24.285867-53.7088 47.957333-83.524266A22.272 22.272 0 0 0 165.188267 525.653333c-60.023467 75.5712-77.738667 143.36-49.8688 190.754134C132.522667 745.813333 165.768533 764.16 211.473067 769.706667a265.847467 265.847467 0 0 0 31.488 1.706666 385.0752 385.0752 0 0 0 55.944533-4.420266c84.497067-12.509867 183.825067-50.3808 279.671467-106.666667s177.322667-124.586667 229.410133-192.238933c56.32-73.1648 72.3968-138.837333 45.329067-184.951467-21.111467-35.959467-65.1264-54.954667-127.300267-54.954667z" fill="#E8D4AB" p-id="2127"></path></svg>