<?xml version="1.0" standalone="no"?><!DOCTYPE svg PUBLIC "-//W3C//DTD SVG 1.1//EN" "http://www.w3.org/Graphics/SVG/1.1/DTD/svg11.dtd"><svg t="1661760542645" class="icon" viewBox="0 0 1024 1024" version="1.1" xmlns="http://www.w3.org/2000/svg" p-id="1827" xmlns:xlink="http://www.w3.org/1999/xlink" width="128" height="128"><path d="M624.759467 177.152v-0.580267H399.735467v0.238934a55.074133 55.074133 0 0 0-49.7664 54.749866v566.749867a55.074133 55.074133 0 0 0 49.7664 54.749867v0.273066h225.024v-0.580266a55.0912 55.0912 0 0 0 46.967466-54.408534v-566.784a55.0912 55.0912 0 0 0-46.967466-54.408533zM536.866133 219.221333H486.912M453.751467 219.221333h-28.416M392.174933 219.221333h-16.5888M646.126933 219.221333h-16.605866M599.159467 219.221333h-28.398934" fill="#996E28" p-id="1828"></path><path d="M616.721067 172.373333v60.740267h-4.7616V172.373333h-53.998934v60.740267h-8.2944V172.373333H474.112v60.740267h-7.560533V172.373333h-54.016v60.740267h-7.560534V172.373333a42.205867 42.205867 0 0 0-42.205866 42.205867v566.664533a42.205867 42.205867 0 0 0 42.205866 42.205867v-70.656h7.560534v70.656h54.016v-70.656h7.560533v70.656h75.554133v-70.656h8.2944v70.656h54.016v-70.656h4.7616v70.656a42.205867 42.205867 0 0 0 42.205867-42.205867V214.493867A42.205867 42.205867 0 0 0 616.721067 172.373333zM404.974933 742.929067v-500.053334h7.560534v500.053334z m61.576534 0v-500.053334h7.560533v500.053334z m83.114666 0v-500.053334h8.2944v500.053334z m62.293334 0v-500.053334h4.7616v500.053334z" fill="#E8D4AB" p-id="1829"></path><path d="M624.759467 836.266667H399.735467v-0.256a55.074133 55.074133 0 0 1-49.7664-54.749867V214.493867a55.074133 55.074133 0 0 1 49.7664-54.749867v-0.256h225.024v0.580267a55.0912 55.0912 0 0 1 46.967466 54.408533v566.766933a55.0912 55.0912 0 0 1-46.967466 54.408534z m-54.016-25.6h28.416V185.088h-28.398934z m-83.831467 0h49.954133V185.088H486.912z m-61.576533 0h28.416V185.088h-28.416z m204.1856-70.656v67.720533a29.44 29.44 0 0 0 16.605866-26.4704V214.493867a29.44 29.44 0 0 0-16.605866-26.4704zM392.174933 188.023467a29.44 29.44 0 0 0-16.605866 26.4704v566.749866a29.44 29.44 0 0 0 16.605866 26.4704z" fill="#E8D4AB" p-id="1830"></path><path d="M404.974933 173.0048V824.149333a42.205867 42.205867 0 0 1-42.205866-42.205866V215.1936a42.205867 42.205867 0 0 1 42.205866-42.1888z" fill="#C13636" p-id="1831"></path><path d="M412.535467 173.0048h54.016V824.149333h-54.016z" fill="#D5382E" p-id="1832"></path><path d="M616.721067 173.0048a42.205867 42.205867 0 0 1 42.205866 42.205867v566.7328a42.205867 42.205867 0 0 1-42.205866 42.205866V173.0048z" fill="#C13636" p-id="1833"></path><path d="M557.960533 173.0048h54.016V824.149333h-54.016z" fill="#D5382E" p-id="1834"></path><path d="M474.112 173.0048h75.554133V824.149333H474.112z" fill="#FF4743" p-id="1835"></path><path d="M390.4512 233.728l243.950933 0 0 9.847467-243.950933 0 0-9.847467Z" fill="#E8D4AB" p-id="1836"></path><path d="M390.4512 743.6288l243.950933 0 0 9.847467-243.950933 0 0-9.847467Z" fill="#E8D4AB" p-id="1837"></path></svg>