<?xml version="1.0" standalone="no"?><!DOCTYPE svg PUBLIC "-//W3C//DTD SVG 1.1//EN" "http://www.w3.org/Graphics/SVG/1.1/DTD/svg11.dtd"><svg t="1661760505370" class="icon" viewBox="0 0 1024 1024" version="1.1" xmlns="http://www.w3.org/2000/svg" p-id="1469" width="128" height="128" xmlns:xlink="http://www.w3.org/1999/xlink"><path d="M900.6592 301.3632v-51.370667h-122.0096v51.370667h20.599467v11.485867h-20.599467v18.056533H274.875733v-18.056533h-20.599466v-11.485867h20.599466v-51.370667H152.866133v51.370667h20.599467v11.485867H152.866133v445.986133h20.599467v11.485867H152.866133v51.370666h122.0096v-51.370666h-20.599466v-11.485867h20.599466v-18.056533h503.773867v18.056533h20.599467v11.485867h-20.599467v51.370666h122.0096v-51.370666h-20.599467v-11.485867h20.599467V312.849067h-20.599467v-11.485867h20.599467z" fill="#996E28" p-id="1470"></path><path d="M893.832533 277.469867v-37.717334h-108.356266v37.717334h20.599466v25.1392h-20.599466v18.056533H268.049067v-18.056533h-20.599467v-25.1392h20.599467v-37.717334H159.6928v37.717334h20.599467v25.1392H159.6928v432.3328h20.599467v25.1392H159.6928v37.717333h108.356267v-37.717333h-20.599467v-25.1392h20.599467v-18.056534h517.4272v18.056534h20.599466v25.1392h-20.599466v37.717333h108.356266v-37.717333h-20.599466v-25.1392h20.599466V302.609067h-20.599466v-25.1392h20.599466z" fill="#FF4743" p-id="1471"></path><path d="M900.6592 804.625067h-122.0096v-51.370667h20.599467v-11.485867h-20.599467V723.626667H274.8928v18.056533H254.293333v11.485867h20.599467v51.370666h-122.026667v-51.370666h20.599467v-11.485867H152.866133V295.7824h20.599467v-11.485867H152.866133v-51.370666h122.0096v51.370666H254.293333v11.485867h20.599467v18.056533h503.7568v-18.056533h20.599467v-11.485867h-20.599467v-51.370666h122.0096v51.370666h-20.599467v11.485867h20.599467v445.986133h-20.599467v11.485867h20.599467z m-108.356267-13.653334h94.702934v-24.064h-20.599467v-38.792533h20.599467V309.435733h-20.599467v-38.792533h20.599467v-24.064h-94.702934v24.064h20.599467v38.792533h-20.599467v18.056534H261.239467v-18.056534H240.64v-38.792533h20.599467v-24.064h-94.72v24.064h20.599466v38.792533H166.519467v418.679467h20.599466v38.792533H166.519467v24.064h94.702933v-24.064H240.64v-38.792533h20.599467V709.973333h531.063466v18.056534h20.599467v38.792533h-20.599467z" fill="#E8D4AB" p-id="1472"></path><path d="M208.827733 320.6656h599.159467v396.219733H208.827733z" fill="#D5382E" p-id="1473"></path><path d="M785.476267 239.752533h108.356266v37.717334h-108.356266zM785.476267 302.609067h108.356266v432.349866h-108.356266zM785.476267 760.081067h108.356266v37.717333h-108.356266z" fill="#FF4743" p-id="1474"></path><path d="M806.075733 734.941867h67.157334v25.1392h-67.157334zM806.075733 277.469867h67.157334v25.1392h-67.157334z" fill="#AF3131" p-id="1475"></path><path d="M159.6928 239.752533h108.356267v37.717334H159.6928zM159.6928 302.609067h108.356267v432.349866H159.6928zM159.6928 760.081067h108.356267v37.717333H159.6928z" fill="#FF4743" p-id="1476"></path><path d="M180.292267 734.941867h67.157333v25.1392h-67.157333zM180.292267 277.469867h67.157333v25.1392h-67.157333z" fill="#AF3131" p-id="1477"></path><path d="M664.064 533.486933a67.7376 67.7376 0 0 1-67.7376 67.7376 6.656 6.656 0 0 1-6.656-6.656 67.7376 67.7376 0 0 1 67.720533-67.7376 6.656 6.656 0 0 1 6.656 6.656zM479.965867 594.5856a6.656 6.656 0 0 1-6.656 6.656 67.7376 67.7376 0 0 1-67.7376-67.7376 6.656 6.656 0 0 1 6.656-6.656 67.7376 67.7376 0 0 1 67.7376 67.7376z" fill="#FF4743" p-id="1478"></path><path d="M642.696533 505.838933a107.6224 107.6224 0 0 1-107.6224 107.6224 10.581333 10.581333 0 0 1-10.581333-10.581333 107.6224 107.6224 0 0 1 107.6224-107.6224 10.581333 10.581333 0 0 1 10.581333 10.581333z" fill="#AF3131" p-id="1479"></path><path d="M546.850133 602.88a10.581333 10.581333 0 0 1-10.581333 10.581333 107.6224 107.6224 0 0 1-107.6224-107.6224 10.581333 10.581333 0 0 1 10.581333-10.581333 107.6224 107.6224 0 0 1 107.6224 107.6224z" fill="#AF3131" p-id="1480"></path><path d="M543.573333 456.715947a113.954133 113.954133 0 0 1 0 161.155413 11.195733 11.195733 0 0 1-15.832746 0 113.954133 113.954133 0 0 1 0-161.155413 11.195733 11.195733 0 0 1 15.832746 0z" fill="#FF4743" p-id="1481"></path><path d="M208.827733 320.6656h599.159467v396.219733H208.827733z" fill="#D5382E" p-id="1482"></path><path d="M785.476267 239.752533h108.356266v37.717334h-108.356266zM785.476267 302.609067h108.356266v432.349866h-108.356266zM785.476267 760.081067h108.356266v37.717333h-108.356266z" fill="#FF4743" p-id="1483"></path><path d="M806.075733 734.941867h67.157334v25.1392h-67.157334zM806.075733 277.469867h67.157334v25.1392h-67.157334z" fill="#AF3131" p-id="1484"></path><path d="M159.6928 239.752533h108.356267v37.717334H159.6928zM159.6928 302.609067h108.356267v432.349866H159.6928zM159.6928 760.081067h108.356267v37.717333H159.6928z" fill="#FF4743" p-id="1485"></path><path d="M180.292267 734.941867h67.157333v25.1392h-67.157333zM180.292267 277.469867h67.157333v25.1392h-67.157333z" fill="#AF3131" p-id="1486"></path><path d="M664.064 533.486933a67.7376 67.7376 0 0 1-67.7376 67.7376 6.656 6.656 0 0 1-6.656-6.656 67.7376 67.7376 0 0 1 67.720533-67.7376 6.656 6.656 0 0 1 6.656 6.656z" fill="#E8D4AB" p-id="1487"></path><path d="M596.309333 603.784533a9.233067 9.233067 0 0 1-9.216-9.216 70.382933 70.382933 0 0 1 70.2976-70.2976 9.233067 9.233067 0 0 1 9.216 9.216 70.382933 70.382933 0 0 1-70.2976 70.2976z m61.0816-74.3936A65.245867 65.245867 0 0 0 592.213333 594.568533a4.096 4.096 0 0 0 4.096 4.096 65.245867 65.245867 0 0 0 65.1776-65.1776 4.096 4.096 0 0 0-4.096-4.096z" fill="#D5382E" p-id="1488"></path><path d="M479.965867 594.5856a6.656 6.656 0 0 1-6.656 6.656 67.7376 67.7376 0 0 1-67.7376-67.7376 6.656 6.656 0 0 1 6.656-6.656 67.7376 67.7376 0 0 1 67.7376 67.7376z" fill="#E8D4AB" p-id="1489"></path><path d="M473.309867 603.784533a70.382933 70.382933 0 0 1-70.2976-70.2976 9.233067 9.233067 0 0 1 9.216-9.216 70.382933 70.382933 0 0 1 70.2976 70.2976 9.233067 9.233067 0 0 1-9.216 9.216z m-61.0816-74.3936a4.096 4.096 0 0 0-4.096 4.096 65.245867 65.245867 0 0 0 65.1776 65.1776 4.096 4.096 0 0 0 4.096-4.096 65.245867 65.245867 0 0 0-65.1776-65.1776z" fill="#D5382E" p-id="1490"></path><path d="M642.696533 505.838933a107.6224 107.6224 0 0 1-107.6224 107.6224 10.581333 10.581333 0 0 1-10.581333-10.581333 107.6224 107.6224 0 0 1 107.6224-107.6224 10.581333 10.581333 0 0 1 10.581333 10.581333z" fill="#E8D4AB" p-id="1491"></path><path d="M535.057067 616.106667a13.1584 13.1584 0 0 1-13.141334-13.141334 110.301867 110.301867 0 0 1 110.1824-110.1824 13.1584 13.1584 0 0 1 13.141334 13.141334A110.301867 110.301867 0 0 1 535.057067 616.106667z m97.041066-118.203734a105.181867 105.181867 0 0 0-105.0624 105.0624 8.021333 8.021333 0 0 0 8.021334 8.021334 105.181867 105.181867 0 0 0 105.0624-105.0624 8.021333 8.021333 0 0 0-8.021334-8.106667z" fill="#D5382E" p-id="1492"></path><path d="M546.850133 602.88a10.581333 10.581333 0 0 1-10.581333 10.581333 107.6224 107.6224 0 0 1-107.6224-107.6224 10.581333 10.581333 0 0 1 10.581333-10.581333 107.6224 107.6224 0 0 1 107.6224 107.6224z" fill="#E8D4AB" p-id="1493"></path><path d="M536.251733 616.106667a110.301867 110.301867 0 0 1-110.1824-110.1824 13.1584 13.1584 0 0 1 13.141334-13.141334 110.301867 110.301867 0 0 1 110.1824 110.1824 13.1584 13.1584 0 0 1-13.141334 13.141334z m-97.041066-118.203734a8.021333 8.021333 0 0 0-8.021334 8.021334A105.181867 105.181867 0 0 0 536.251733 610.986667a8.021333 8.021333 0 0 0 8.021334-8.021334 105.181867 105.181867 0 0 0-105.0624-105.147733z" fill="#D5382E" p-id="1494"></path><path d="M543.573333 456.715947a113.954133 113.954133 0 0 1 0 161.155413 11.195733 11.195733 0 0 1-15.832746 0 113.954133 113.954133 0 0 1 0-161.155413 11.195733 11.195733 0 0 1 15.832746 0z" fill="#E8D4AB" p-id="1495"></path><path d="M535.6544 623.7184a13.653333 13.653333 0 0 1-9.728-4.027733 116.650667 116.650667 0 0 1 0-164.778667 13.7728 13.7728 0 0 1 19.456 0 116.650667 116.650667 0 0 1 0 164.778667 13.653333 13.653333 0 0 1-9.728 4.027733z m-6.109867-7.611733a8.6528 8.6528 0 0 0 12.219734 0 111.530667 111.530667 0 0 0 0-157.5424 8.6528 8.6528 0 0 0-12.219734 0 111.530667 111.530667 0 0 0 0 157.5424z" fill="#D5382E" p-id="1496"></path></svg>